<svg width="23" height="22" viewBox="0 0 23 22" fill="none" xmlns="http://www.w3.org/2000/svg">
    <path d="M7.39392 5.78182C7.71409 5.63059 8.0703 5.57234 8.42197 5.61372C8.77363 5.65509 9.1066 5.79441 9.38293 6.01582L13.9729 9.80482L14.0989 9.93982V6.50182C14.0989 6.26313 14.1937 6.03421 14.3625 5.86542C14.5313 5.69664 14.7602 5.60182 14.9989 5.60182C15.2376 5.60182 15.4665 5.69664 15.6353 5.86542C15.8041 6.03421 15.8989 6.26313 15.8989 6.50182V15.5018C15.8989 15.7405 15.8041 15.9694 15.6353 16.1382C15.4665 16.307 15.2376 16.4018 14.9989 16.4018C14.7602 16.4018 14.5313 16.307 14.3625 16.1382C14.1937 15.9694 14.0989 15.7405 14.0989 15.5018V12.0638L13.9729 12.1988L9.38293 15.9878C9.05207 16.2561 8.63891 16.4023 8.21292 16.4018C7.9303 16.4002 7.65121 16.3388 7.39392 16.2218C7.11567 16.0992 6.8786 15.899 6.71103 15.6453C6.54345 15.3915 6.45246 15.0949 6.44893 14.7908V7.21282C6.45246 6.90875 6.54345 6.61213 6.71103 6.35838C6.8786 6.10463 7.11567 5.90447 7.39392 5.78182Z"
          fill="white"/>
</svg>
