<svg width="13" height="10" viewBox="0 0 13 10" fill="none" xmlns="http://www.w3.org/2000/svg">
    <g clip-path="url(#clip0_1_251)">
        <path d="M7.88551 0.723761L7.88551 8.84406C7.88551 9.21772 8.23021 9.52075 8.65525 9.52075H9.42498C9.85002 9.52075 10.1947 9.21772 10.1947 8.84406V0.723761C10.1947 0.3501 9.85002 0.0470686 9.42498 0.0470686H8.65525C8.23021 0.0470686 7.88551 0.3501 7.88551 0.723761ZM3.26709 0.723761L3.26709 8.84406C3.26709 9.21772 3.61179 9.52075 4.03683 9.52075H4.80656C5.2316 9.52075 5.5763 9.21772 5.5763 8.84406V0.723761C5.5763 0.3501 5.2316 0.0470686 4.80656 0.0470686H4.03683C3.61179 0.0470686 3.26709 0.3501 3.26709 0.723761Z"
              fill="white"/>
    </g>
    <defs>
        <clipPath id="clip0_1_251">
            <rect width="9.47368" height="12.3158" fill="white" transform="matrix(0 -1 1 0 0.572754 9.52112)"/>
        </clipPath>
    </defs>
</svg>
