<svg width="28" height="25" viewBox="0 0 28 25" fill="none" xmlns="http://www.w3.org/2000/svg">
    <path fill-rule="evenodd" clip-rule="evenodd"
          d="M14.8564 0.5C14.6778 0.190599 14.3476 0 13.9904 0C13.6331 0 13.303 0.190599 13.1244 0.5L0.133975 23C-0.0446582 23.3094 -0.0446582 23.6906 0.133975 24C0.312607 24.3094 0.642734 24.5 1 24.5H26.9808C27.338 24.5 27.6682 24.3094 27.8468 24C28.0254 23.6906 28.0254 23.3094 27.8468 23L14.8564 0.5ZM13.9904 3L25.2487 22.5H2.73205L13.9904 3ZM14.8561 9.4998C14.6774 9.1904 14.3473 8.9998 13.99 8.9998C13.6328 8.9998 13.3026 9.1904 13.124 9.4998L7.92786 18.4998C7.74923 18.8092 7.74923 19.1904 7.92786 19.4998C8.10649 19.8092 8.43662 19.9998 8.79389 19.9998H19.1862C19.5435 19.9998 19.8736 19.8092 20.0522 19.4998C20.2309 19.1904 20.2309 18.8092 20.0522 18.4998L14.8561 9.4998ZM17.4541 17.9998H10.5259L13.99 11.9998L17.4541 17.9998Z"
          fill="white"/>
</svg>
