<svg width="26" height="26" viewBox="0 0 26 26" fill="none" xmlns="http://www.w3.org/2000/svg">
    <path fill-rule="evenodd" clip-rule="evenodd"
          d="M7.81184 5.07376L7.81632 5.07164C8.35946 4.82692 8.6043 4.18861 8.36206 3.64359C8.11907 3.09685 7.47886 2.85061 6.93212 3.09361L7.3721 4.08357C6.93212 3.09361 6.93096 3.09413 6.93058 3.0943L6.92884 3.09508L6.92474 3.09692L6.91415 3.10174L6.8837 3.11596C6.85943 3.12746 6.82729 3.14308 6.7884 3.16283C6.71078 3.20226 6.60534 3.25862 6.48127 3.33215C6.23539 3.47786 5.90447 3.69794 5.56904 3.9961C4.91357 4.57874 4.1221 5.57162 4.1221 6.97246C4.1221 7.2423 4.15207 7.48858 4.2043 7.71379L2.6652 8.48334C2.13006 8.75091 1.86348 9.4231 2.06979 9.98472C2.2761 10.5463 2.87716 10.7847 3.41231 10.5171L5.37562 9.53547C5.42809 9.58305 5.47877 9.628 5.5268 9.67059L5.56904 9.70808C6.12034 10.1981 6.28877 10.3895 6.28877 10.8243C6.28877 11.3208 6.05187 11.6348 5.48353 12.2663L5.43225 12.3231C5.33781 12.4278 5.23425 12.5425 5.12803 12.6686L2.6652 13.9C2.13006 14.1676 1.86348 14.8398 2.06979 15.4014C2.2761 15.963 2.87716 16.2014 3.41231 15.9338L4.1457 15.5671C4.27765 16.6934 4.93571 17.436 5.42826 17.9351L2.6652 19.3167C2.13006 19.5842 1.86348 20.2564 2.06979 20.8181C2.2761 21.3797 2.87716 21.618 3.41231 21.3505L5.98269 20.0653C5.96199 20.1009 5.94075 20.1355 5.91916 20.1691C5.82109 20.3216 5.72323 20.4409 5.6528 20.5192C5.61796 20.5579 5.59091 20.5853 5.57544 20.6006L5.56228 20.6133C5.12146 21.0116 5.08359 21.6917 5.47908 22.1366C5.87657 22.5838 6.56131 22.6241 7.0085 22.2266L6.28877 21.4169C7.0085 22.2266 7.00942 22.2258 7.00973 22.2255L7.01106 22.2243L7.01403 22.2217L7.02118 22.2152L7.04011 22.1977C7.05473 22.1841 7.07328 22.1664 7.0952 22.1448C7.13897 22.1018 7.19656 22.0427 7.26327 21.9686C7.39597 21.8211 7.56895 21.6094 7.74171 21.3407C8.08302 20.8098 8.45543 20.0052 8.45543 19.0095C8.45543 18.9492 8.4533 18.89 8.44919 18.832L9.91231 18.1005C10.4475 17.8329 10.714 17.1607 10.5077 16.5991C10.3014 16.0375 9.70035 15.7991 9.1652 16.0667L7.46916 16.9147C7.3597 16.7999 7.25245 16.6939 7.15739 16.5999C7.12125 16.5642 7.08687 16.5302 7.0548 16.4981C6.52452 15.9678 6.28877 15.6443 6.28877 15.1576C6.28877 14.8622 6.37267 14.6313 6.56041 14.3597L9.91231 12.6838C10.4475 12.4162 10.714 11.744 10.5077 11.1824C10.3014 10.6208 9.70035 10.3824 9.1652 10.65L8.45076 11.0072C8.45384 10.9473 8.45543 10.8863 8.45543 10.8243C8.45543 9.69975 7.93502 8.98441 7.45094 8.49781L9.91231 7.26713C10.4475 6.99956 10.714 6.32737 10.5077 5.76575C10.3014 5.20414 9.70035 4.96577 9.1652 5.23334L6.32551 6.65319C6.41656 6.26193 6.66996 5.91641 7.0085 5.61549C7.21473 5.43217 7.42548 5.29114 7.58585 5.19611C7.6649 5.14926 7.72873 5.11535 7.76961 5.09459C7.78996 5.08425 7.80437 5.0773 7.81184 5.07376ZM13.2203 5.12298C13.5565 4.64061 14.1259 4.08357 14.9554 4.08357C15.7297 4.08357 17.8295 4.39629 19.7698 5.60062C21.7781 6.84714 23.6221 9.06456 23.6221 12.7502C23.6221 16.4359 21.7781 18.6533 19.7698 19.8998C17.8295 21.1042 15.7297 21.4169 14.9554 21.4169C14.1259 21.4169 13.5565 20.8599 13.2203 20.3775C12.8654 19.8683 12.5917 19.2005 12.3799 18.4676C11.9523 16.9874 11.7054 14.9843 11.7054 12.7502C11.7054 10.5161 11.9523 8.51303 12.3799 7.0329C12.5917 6.29997 12.8654 5.63214 13.2203 5.12298ZM14.4615 7.63423C14.1067 8.86243 13.8721 10.651 13.8721 12.7502C13.8721 14.8495 14.1067 16.638 14.4615 17.8662C14.641 18.4875 14.8336 18.903 14.9978 19.1386C15.0318 19.1873 15.0596 19.2218 15.0807 19.2457C15.6524 19.2093 17.1997 18.945 18.6272 18.059C20.1096 17.1388 21.4554 15.5646 21.4554 12.7502C21.4554 9.9359 20.1096 8.36166 18.6272 7.44151C17.1997 6.55551 15.6524 6.29117 15.0807 6.25481C15.0595 6.27865 15.0318 6.31313 14.9978 6.36186C14.8336 6.59749 14.641 7.01299 14.4615 7.63423ZM15.131 6.20716C15.131 6.20751 15.1279 6.21007 15.1217 6.21379C15.1278 6.20866 15.1309 6.20681 15.131 6.20716ZM15.131 19.2933C15.1309 19.2937 15.1278 19.2918 15.1217 19.2867C15.1279 19.2904 15.131 19.293 15.131 19.2933Z"
          fill="white"/>
</svg>
