<svg width="30" height="30" viewBox="0 0 30 30" fill="none" xmlns="http://www.w3.org/2000/svg">
    <path d="M15.168 2.99997C11.7309 2.99997 9 5.74027 9 9.15859C9 11.6917 10.4879 13.9329 12.8421 14.8746V23.9996C12.8421 24.2726 12.9268 24.5175 13.134 24.7246L14.7725 26.3067C14.9797 26.5139 15.3752 26.5609 15.6389 26.2973L18.6052 23.331C18.8783 23.0579 18.8689 22.6624 18.6052 22.3987L16.9007 20.7131L19.2926 18.3212C19.5375 18.0669 19.5469 17.6714 19.2738 17.3983L16.9478 15.063C19.7635 13.867 21.3267 11.7106 21.3267 9.15859C21.3267 5.74969 18.5864 2.99997 15.168 2.99997ZM15.168 8.72542C14.2546 8.72542 13.5107 7.98148 13.5107 7.06805C13.5107 6.1452 14.2452 5.41068 15.168 5.41068C16.0815 5.41068 16.8254 6.15462 16.8254 7.06805C16.8254 7.98148 16.0815 8.72542 15.168 8.72542Z"
          fill="white"/>
</svg>
