<svg width="36" height="36" viewBox="0 0 36 36" fill="none" xmlns="http://www.w3.org/2000/svg">
    <path d="M32.4952 11.8969C31.7065 10.0144 30.559 8.30329 29.1167 6.85902C27.6788 5.41223 25.9707 4.26194 24.0894 3.47347C22.1622 2.66182 20.0915 2.24577 18.0003 2.25003H17.93C15.803 2.26058 13.7464 2.68245 11.8093 3.51214C9.94415 4.30869 8.25208 5.46102 6.82766 6.90472C5.39936 8.34575 4.26502 10.0509 3.48781 11.925C2.68103 13.874 2.27223 15.9646 2.28547 18.0739C2.29601 20.5137 2.87961 22.936 3.96945 25.1016V30.4453C3.96945 31.3383 4.69367 32.0625 5.58312 32.0625H10.9198C13.0956 33.1604 15.4965 33.7381 17.9335 33.75H18.0073C20.1097 33.75 22.1452 33.3422 24.0648 32.5442C25.9365 31.7651 27.6383 30.6282 29.0745 29.1973C30.523 27.7594 31.662 26.0789 32.4601 24.2051C33.2862 22.2645 33.7081 20.2008 33.7187 18.0703C33.7257 15.9293 33.3109 13.8516 32.4952 11.8969ZM10.9831 19.6875C10.055 19.6875 9.29914 18.9317 9.29914 18C9.29914 17.0684 10.055 16.3125 10.9831 16.3125C11.9112 16.3125 12.6671 17.0684 12.6671 18C12.6671 18.9317 11.9148 19.6875 10.9831 19.6875ZM18.0003 19.6875C17.0722 19.6875 16.3163 18.9317 16.3163 18C16.3163 17.0684 17.0722 16.3125 18.0003 16.3125C18.9284 16.3125 19.6843 17.0684 19.6843 18C19.6843 18.9317 18.9284 19.6875 18.0003 19.6875ZM25.0175 19.6875C24.0894 19.6875 23.3335 18.9317 23.3335 18C23.3335 17.0684 24.0894 16.3125 25.0175 16.3125C25.9456 16.3125 26.7015 17.0684 26.7015 18C26.7015 18.9317 25.9456 19.6875 25.0175 19.6875Z" fill="white"/>
</svg>