<svg width="43" height="43" viewBox="0 0 43 43" fill="none" xmlns="http://www.w3.org/2000/svg">
    <path d="M12.5415 32.2492C12.5415 32.2492 7.1665 17.9159 7.1665 10.7492C7.1665 3.58258 10.7498 3.58258 10.7498 3.58258H12.5415C12.5415 3.58258 14.3332 3.58258 14.3332 5.37425C14.3332 7.16591 12.5415 7.16591 12.5415 10.7492C12.5415 14.3326 17.9165 17.9159 17.9165 23.2909C17.9165 28.6659 12.5415 32.2492 12.5415 32.2492ZM21.4998 30.4576C19.7082 30.4576 14.3332 34.9367 14.3332 34.9367C13.7957 35.2951 13.9748 35.8326 14.3332 36.3701C14.3332 36.3701 16.1248 39.5951 19.7082 39.5951H30.4582C32.429 39.5951 34.0415 37.9826 34.0415 36.0117V34.2201C34.0415 32.2492 32.429 30.6367 30.4582 30.6367H21.4998V30.4576Z" fill="white"/>
</svg>