<svg width="43" height="43" viewBox="0 0 43 43" fill="none" xmlns="http://www.w3.org/2000/svg">
    <path d="M30.4585 32.2492C30.4585 32.2492 35.8335 17.9159 35.8335 10.7492C35.8335 3.58258 32.2502 3.58258 32.2502 3.58258H30.4585C30.4585 3.58258 28.6668 3.58258 28.6668 5.37425C28.6668 7.16591 30.4585 7.16591 30.4585 10.7492C30.4585 14.3326 25.0835 17.9159 25.0835 23.2909C25.0835 28.6659 30.4585 32.2492 30.4585 32.2492ZM21.5002 30.4576C23.2918 30.4576 28.6668 34.9367 28.6668 34.9367C29.2043 35.2951 29.0252 35.8326 28.6668 36.3701C28.6668 36.3701 26.8752 39.5951 23.2918 39.5951H12.5418C10.571 39.5951 8.9585 37.9826 8.9585 36.0117V34.2201C8.9585 32.2492 10.571 30.6367 12.5418 30.6367H21.5002V30.4576Z" fill="white"/>
</svg>